<?xml version="1.0" standalone="no"?>
<!DOCTYPE svg PUBLIC "-//W3C//DTD SVG 20010904//EN"
 "http://www.w3.org/TR/2001/REC-SVG-20010904/DTD/svg10.dtd">
<svg version="1.0" xmlns="http://www.w3.org/2000/svg"
 width="528.000000pt" height="375.000000pt" viewBox="0 0 528.000000 375.000000"
 preserveAspectRatio="xMidYMid meet">

<g transform="translate(0.000000,375.000000) scale(0.100000,-0.100000)"
fill="#000000" stroke="none">
<path d="M0 1875 l0 -1875 2640 0 2640 0 0 1875 0 1875 -2640 0 -2640 0 0
-1875z m1990 1536 c187 -48 172 -41 192 -99 10 -29 20 -67 23 -85 4 -30 15
-74 31 -125 9 -30 27 -33 193 -30 l145 3 11 51 c43 190 219 317 417 301 91 -8
164 -42 240 -114 80 -76 109 -140 116 -251 5 -97 -8 -141 -73 -243 -48 -75
-119 -125 -219 -156 l-58 -18 7 -117 c4 -64 4 -139 0 -168 -6 -47 -9 -51 -31
-48 l-25 3 -4 170 c-2 94 -9 217 -15 275 -6 58 -14 134 -16 170 -3 36 -10 70
-16 77 -7 9 -87 12 -323 10 -172 -1 -316 -5 -320 -9 -4 -3 1 -34 9 -68 9 -34
16 -69 16 -78 0 -9 5 -34 10 -54 l11 -37 67 -3 c64 -3 67 -4 67 -28 l0 -25
-176 -3 -176 -2 -10 -83 c-7 -48 -8 -86 -2 -93 10 -13 717 -18 738 -5 11 7 12
25 5 92 l-9 84 -130 2 c-156 3 -175 7 -175 33 0 28 24 31 194 28 l150 -3 8
-30 c10 -33 31 -248 31 -310 -1 -154 -111 -318 -260 -388 -64 -30 -74 -31
-188 -32 -113 0 -124 2 -180 29 -83 41 -168 131 -214 226 -35 74 -36 77 -35
195 1 138 13 272 26 298 7 14 24 17 108 17 82 0 100 3 100 15 0 17 -20 102
-30 130 -4 11 -12 38 -16 60 l-9 40 -80 3 c-124 5 -120 8 -134 -105 -28 -227
-35 -316 -35 -459 l-1 -151 40 -79 c76 -150 202 -254 348 -288 73 -17 222 -5
300 24 99 37 187 105 243 188 1 2 12 1 23 -3 35 -11 24 -42 -37 -103 -86 -86
-190 -140 -318 -165 l-59 -12 -2 -65 c-4 -88 2 -107 34 -115 15 -3 38 -14 52
-24 14 -10 55 -33 90 -51 36 -18 69 -37 76 -44 27 -28 45 -63 45 -88 l0 -28
-232 -2 c-244 -3 -420 0 -427 8 -2 2 1 22 8 43 12 43 74 103 97 94 24 -9 20
-38 -8 -55 -15 -10 -28 -22 -28 -28 0 -6 91 -10 260 -10 203 0 258 3 255 13
-3 6 -40 30 -83 51 -42 22 -93 50 -112 63 -45 30 -67 29 -137 -7 -53 -28 -59
-29 -70 -14 -17 23 -11 30 56 64 32 16 61 36 65 45 3 9 3 48 0 85 l-7 69 -46
6 c-131 16 -215 58 -312 154 -90 90 -141 184 -166 306 -16 82 -12 180 18 415
5 41 14 122 19 180 16 154 3 140 136 140 132 0 125 -8 93 110 -11 41 -23 87
-26 102 -8 41 -17 46 -187 87 -85 21 -102 31 -93 55 8 20 3 21 137 -13z m990
-1185 c0 -20 -27 -39 -45 -32 -18 6 -20 37 -3 54 14 14 48 -2 48 -22z m1983
-1125 c45 -22 67 -45 55 -57 -3 -2 -27 8 -54 23 -45 25 -58 28 -149 28 -95 0
-103 -2 -150 -32 -92 -58 -135 -142 -135 -261 0 -114 43 -196 135 -259 39 -26
76 -35 153 -34 69 0 151 33 190 74 23 25 25 33 23 99 -1 40 -4 47 -23 50 -33
5 -35 28 -1 28 41 0 54 -13 62 -56 10 -60 -2 -217 -16 -222 -9 -2 -13 7 -13
25 0 15 -5 35 -10 43 -8 12 -12 11 -32 -7 -77 -70 -212 -89 -316 -43 -134 58
-216 233 -178 381 28 108 90 184 189 230 61 28 202 23 270 -10z m-4421 -9 c58
-29 112 -83 141 -142 18 -37 22 -62 22 -146 0 -92 -3 -105 -30 -159 -35 -68
-104 -127 -169 -145 -63 -17 -258 -25 -284 -11 -21 11 -22 16 -24 304 l-3 292
-32 3 c-21 2 -33 9 -33 18 0 14 25 15 183 12 166 -3 186 -5 229 -26z m602 14
c18 -8 46 -31 62 -52 25 -33 29 -46 29 -105 0 -78 -16 -106 -84 -152 -30 -21
-39 -32 -32 -41 5 -6 35 -62 65 -123 44 -87 61 -112 78 -115 26 -3 38 -38 14
-38 -42 0 -63 25 -126 146 -35 69 -73 130 -82 135 -10 6 -53 9 -96 7 l-77 -3
-3 -142 c-2 -118 -5 -143 -17 -143 -13 0 -15 43 -15 305 l0 305 -30 0 c-29 0
-38 9 -23 23 13 14 302 8 337 -7z m359 -1 c-1 -5 -14 -11 -28 -13 l-25 -3 0
-285 0 -284 30 -6 c17 -4 30 -13 30 -20 0 -11 -18 -14 -75 -14 -60 0 -75 3
-75 15 0 8 8 15 19 15 39 0 41 17 39 301 l-3 274 -27 3 c-17 2 -28 9 -28 18 0
12 14 14 73 12 41 -2 71 -7 70 -13z m258 -72 c88 -116 309 -420 332 -456 10
-16 21 -26 24 -23 3 3 5 119 4 258 -1 155 2 264 8 281 9 22 17 27 46 27 43 0
49 -27 8 -32 l-28 -3 -2 -299 c-1 -164 -5 -301 -8 -304 -10 -10 -55 45 -205
253 -79 110 -151 207 -158 215 -8 8 -28 36 -44 62 -16 27 -34 46 -39 42 -5 -3
-9 -125 -9 -279 0 -261 -1 -275 -19 -285 -27 -14 -61 -13 -61 3 0 7 14 18 30
24 l30 11 0 296 c0 232 3 296 13 296 7 0 42 -39 78 -87z m721 -25 c127 -169
250 -337 288 -393 18 -27 35 -52 37 -55 16 -19 23 59 23 277 0 138 3 258 6
267 8 22 74 22 74 1 0 -9 -9 -15 -25 -15 l-25 0 0 -305 c0 -254 -2 -305 -14
-305 -8 0 -51 51 -97 112 -45 62 -106 145 -134 183 -28 39 -71 97 -96 129 -24
32 -59 81 -76 107 -18 27 -36 49 -40 49 -5 0 -7 -122 -5 -271 3 -244 1 -273
-14 -290 -20 -23 -74 -26 -74 -5 0 8 10 16 23 18 l22 3 3 303 c3 366 -2 358
124 190z m606 100 c8 -8 12 -54 12 -139 0 -113 2 -128 18 -132 29 -8 111 -1
125 12 8 6 52 69 98 141 73 113 109 153 109 121 0 -5 -40 -71 -90 -145 -49
-75 -90 -140 -90 -145 0 -5 18 -39 39 -77 21 -38 56 -103 78 -144 28 -56 44
-76 63 -80 35 -8 40 -40 5 -40 -39 0 -65 33 -134 170 -82 163 -80 162 -155
158 l-61 -3 -3 -163 c-2 -124 -5 -163 -15 -159 -9 3 -13 78 -15 305 l-2 302
-30 0 c-20 0 -30 5 -30 15 0 19 60 21 78 3z m602 -2 c0 -8 -12 -16 -26 -18
l-25 -3 0 -277 c0 -153 3 -283 6 -289 4 -6 16 -9 26 -6 14 4 19 0 19 -14 0
-17 -8 -19 -70 -19 -61 0 -70 2 -70 18 0 13 7 18 23 18 l22 -1 3 288 2 287
-25 0 c-16 0 -25 6 -25 15 0 12 14 15 70 15 54 0 70 -3 70 -14z m235 -39 c67
-88 258 -348 315 -429 29 -43 57 -78 62 -78 4 0 8 121 8 268 0 195 3 271 12
280 17 17 78 16 78 -2 0 -9 -12 -16 -27 -18 l-28 -3 -2 -290 c-2 -159 -3 -296
-3 -302 0 -31 -30 -6 -90 78 -36 50 -86 118 -111 152 -25 34 -80 107 -120 162
-41 55 -85 117 -98 138 -12 20 -27 37 -32 37 -5 0 -9 -116 -9 -280 0 -266 -1
-280 -19 -290 -28 -15 -61 -12 -61 4 0 8 10 16 23 18 l22 3 3 290 c1 160 4
296 7 303 9 23 30 11 70 -41z"/>
<path d="M2860 3362 c-48 -18 -110 -53 -110 -62 0 -3 40 -46 90 -95 65 -64 91
-85 95 -74 3 8 4 67 3 129 -3 130 -3 130 -78 102z"/>
<path d="M2999 3377 c-7 -17 -8 -247 -1 -251 11 -7 172 153 172 170 0 16 -96
70 -137 77 -18 4 -33 5 -34 4z"/>
<path d="M2681 3224 c-25 -31 -55 -120 -47 -139 4 -12 29 -15 127 -15 73 0
119 4 117 10 -5 14 -160 170 -169 170 -4 0 -17 -12 -28 -26z"/>
<path d="M3137 3172 c-42 -42 -77 -83 -77 -90 0 -9 32 -12 120 -12 l120 0 -1
28 c-1 29 -58 144 -74 149 -6 2 -45 -32 -88 -75z"/>
<path d="M3116 3011 l-69 -6 87 -90 87 -90 25 30 c22 27 31 49 50 128 5 24 3
27 -17 27 -13 0 -40 2 -59 4 -19 2 -66 1 -104 -3z"/>
<path d="M2981 2903 c1 -78 12 -180 21 -188 8 -9 115 20 144 39 13 9 24 22 24
29 0 13 -170 187 -182 187 -5 0 -8 -30 -7 -67z"/>
<path d="M2065 2460 c-7 -12 1 -74 18 -135 14 -51 83 -151 134 -191 137 -110
323 -111 470 -3 56 42 111 117 131 179 7 19 14 63 17 98 l5 62 -384 0 c-255 0
-387 -4 -391 -10z m145 -112 c0 -4 -10 -12 -21 -19 -17 -9 -23 -8 -30 2 -13
21 -11 37 9 48 13 8 20 6 30 -6 6 -9 12 -20 12 -25z m55 -89 c5 -14 1 -25 -11
-34 -16 -11 -20 -10 -32 6 -11 16 -11 23 -2 34 18 21 38 18 45 -6z m96 -91
c-10 -28 -22 -32 -46 -14 -19 14 -19 15 -1 35 25 27 59 12 47 -21z"/>
<path d="M318 1092 l-88 -3 0 -284 c0 -262 1 -284 18 -288 9 -3 64 -4 122 -3
109 3 166 19 215 63 108 96 125 287 36 411 -60 82 -141 109 -303 104z"/>
<path d="M894 1077 c-2 -7 -3 -71 -2 -143 l3 -129 106 -3 c96 -2 108 -1 140
21 37 25 68 77 68 117 1 43 -26 103 -55 127 -26 21 -39 23 -142 23 -83 0 -114
-3 -118 -13z"/>
</g>
</svg>
